<svg width="16" height="16" viewBox="0 0 16 16" fill="none" xmlns="http://www.w3.org/2000/svg">
<g clip-path="url(#clip0_24_599)">
<path d="M10.6666 8.5987V11.3987C10.6666 13.732 9.73325 14.6654 7.39992 14.6654H4.59992C2.26659 14.6654 1.33325 13.732 1.33325 11.3987V8.5987C1.33325 6.26536 2.26659 5.33203 4.59992 5.33203H7.39992C9.73325 5.33203 10.6666 6.26536 10.6666 8.5987Z" stroke="currentColor" stroke-linecap="round" stroke-linejoin="round"/>
<path d="M14.6666 4.5987V7.3987C14.6666 9.73203 13.7333 10.6654 11.3999 10.6654H10.6666V8.5987C10.6666 6.26536 9.73325 5.33203 7.39992 5.33203H5.33325V4.5987C5.33325 2.26536 6.26659 1.33203 8.59992 1.33203H11.3999C13.7333 1.33203 14.6666 2.26536 14.6666 4.5987Z" stroke="currentColor" stroke-linecap="round" stroke-linejoin="round"/>
</g>
<defs>
<clipPath id="clip0_24_599">
<rect width="16" height="16" fill="currentColor"/>
</clipPath>
</defs>
</svg>
